<?xml version="1.0" standalone="no"?>
<!DOCTYPE svg PUBLIC "-//W3C//DTD SVG 20010904//EN"
 "http://www.w3.org/TR/2001/REC-SVG-20010904/DTD/svg10.dtd">
<svg version="1.0" xmlns="http://www.w3.org/2000/svg"
 width="2000.000000pt" height="2000.000000pt" viewBox="0 0 2000.000000 2000.000000"
 preserveAspectRatio="xMidYMid meet">

<g transform="translate(0.000000,2000.000000) scale(0.100000,-0.100000)"
fill="#000000" stroke="none">
<path d="M0 10000 l0 -10000 10000 0 10000 0 0 10000 0 10000 -10000 0 -10000
0 0 -10000z m12030 3646 c313 -77 323 -227 22 -308 -59 -16 -118 -21 -257 -25
-157 -4 -193 -2 -285 17 -267 55 -346 162 -190 257 42 26 153 60 235 73 91 14
398 5 475 -14z m-699 -388 c114 -58 194 -72 419 -72 180 -1 216 2 292 21 102
26 178 62 206 98 11 14 23 25 27 25 4 0 6 -43 3 -95 -4 -88 -6 -97 -33 -125
-138 -144 -684 -169 -917 -43 -80 44 -88 59 -88 177 l0 101 18 -30 c11 -17 42
-42 73 -57z m-511 -253 c92 -20 205 -70 231 -103 60 -76 -10 -154 -181 -201
-280 -78 -713 -27 -809 95 -72 92 66 188 322 224 90 13 349 4 437 -15z m554
-89 c98 -39 217 -56 390 -56 232 0 402 43 484 123 l32 31 0 -71 c0 -39 -3 -84
-6 -102 -18 -88 -158 -149 -399 -172 -252 -25 -534 32 -610 123 -23 27 -25 38
-25 122 l0 93 34 -32 c19 -18 64 -44 100 -59z m-1244 -301 c246 -124 766 -100
912 42 l38 37 0 -84 c0 -116 -15 -145 -100 -187 -121 -61 -292 -89 -480 -80
-203 10 -352 51 -421 116 l-39 38 0 98 0 98 21 -27 c12 -15 43 -38 69 -51z
m1200 0 c124 -63 347 -94 540 -76 196 19 297 51 370 118 l43 38 -5 -96 c-5
-118 -16 -137 -100 -178 -121 -59 -293 -87 -478 -78 -203 10 -352 51 -421 116
l-39 38 0 98 0 98 21 -27 c12 -15 43 -38 69 -51z m-1727 -251 c165 -31 267
-92 267 -159 0 -44 -28 -76 -94 -108 -109 -54 -211 -71 -416 -71 -196 0 -265
10 -385 55 -70 26 -135 84 -135 121 0 109 270 195 569 182 63 -3 150 -12 194
-20z m543 -79 c122 -58 357 -86 545 -66 180 20 303 62 361 124 l30 32 -4 -97
c-4 -115 -16 -137 -98 -179 -105 -54 -213 -73 -420 -73 -135 0 -204 4 -255 16
-113 26 -187 58 -227 98 l-38 38 0 97 0 97 25 -31 c14 -16 51 -42 81 -56z
m1200 0 c122 -58 357 -86 545 -66 180 20 303 62 361 124 l30 32 -4 -97 c-4
-115 -16 -137 -98 -179 -105 -54 -213 -73 -420 -73 -135 0 -204 4 -255 16
-113 26 -187 58 -227 98 l-38 38 0 97 0 97 25 -31 c14 -16 51 -42 81 -56z
m-2372 -334 c116 -43 192 -54 376 -55 132 -1 196 4 260 17 104 22 202 66 242
109 l30 32 -3 -96 c-5 -115 -18 -139 -100 -181 -111 -56 -194 -70 -414 -71
-176 -1 -210 2 -289 22 -108 27 -202 75 -222 113 -9 18 -14 59 -14 117 l0 90
38 -38 c21 -21 62 -46 96 -59z m1200 0 c116 -43 192 -54 376 -55 132 -1 196 4
260 17 104 22 202 66 242 109 l30 32 -3 -96 c-5 -115 -18 -139 -100 -181 -111
-56 -194 -70 -414 -71 -176 -1 -211 2 -287 21 -82 21 -161 55 -199 85 -30 25
-39 57 -39 146 l0 90 38 -38 c21 -21 62 -46 96 -59z m1200 0 c116 -43 192 -54
376 -55 132 -1 196 4 260 17 104 22 202 66 242 109 l30 32 -3 -96 c-5 -115
-18 -139 -100 -181 -111 -56 -194 -70 -414 -71 -176 -1 -210 2 -289 22 -108
27 -202 75 -222 113 -9 18 -14 59 -14 117 l0 90 38 -38 c21 -21 62 -46 96 -59z
m-3006 -242 c107 -16 214 -55 260 -95 104 -89 19 -179 -218 -232 -118 -27
-417 -23 -532 6 -106 26 -176 60 -212 102 -49 59 -25 110 77 159 145 71 397
95 625 60z m571 -63 c25 -13 87 -34 136 -47 79 -21 114 -24 275 -24 260 0 411
36 492 117 l40 40 -4 -100 c-3 -95 -6 -103 -32 -131 -35 -37 -124 -77 -218
-99 -103 -24 -445 -24 -539 0 -110 28 -179 58 -215 94 l-34 35 0 100 0 101 26
-32 c15 -17 47 -41 73 -54z m1200 0 c25 -13 87 -34 136 -47 79 -21 114 -24
275 -24 260 0 411 36 492 117 l40 40 -4 -100 c-3 -95 -6 -103 -32 -131 -35
-37 -124 -77 -218 -99 -103 -24 -445 -24 -539 0 -110 28 -179 58 -215 94 l-34
35 0 100 0 101 26 -32 c15 -17 47 -41 73 -54z m1200 0 c25 -13 87 -34 136 -47
79 -21 114 -24 275 -24 260 0 411 36 492 117 l40 40 -4 -100 c-3 -95 -6 -103
-32 -131 -35 -37 -124 -77 -218 -99 -103 -24 -445 -24 -539 0 -110 28 -179 58
-215 94 l-34 35 0 100 0 101 26 -32 c15 -17 47 -41 73 -54z m-3564 -355 c120
-45 189 -55 385 -55 157 0 198 3 274 22 108 27 182 62 219 105 l29 32 -4 -97
c-4 -118 -16 -139 -107 -184 -110 -55 -199 -69 -426 -68 -173 0 -211 3 -280
22 -99 28 -157 55 -195 94 -29 29 -30 32 -30 128 l0 98 38 -38 c21 -21 62 -46
97 -59z m1200 0 c120 -45 189 -55 385 -55 155 0 199 3 270 21 117 29 177 57
218 100 l34 37 -4 -102 c-4 -120 -16 -138 -113 -182 -113 -52 -199 -65 -420
-64 -172 1 -211 4 -280 23 -99 27 -157 54 -195 93 -29 29 -30 32 -30 128 l0
98 38 -38 c21 -21 62 -46 97 -59z m1200 0 c120 -45 189 -55 385 -55 155 0 199
3 270 21 117 29 177 57 218 100 l34 37 -4 -102 c-4 -120 -16 -138 -113 -182
-113 -52 -199 -65 -420 -64 -169 1 -212 4 -276 22 -97 26 -163 57 -200 94 -28
29 -29 32 -29 128 l0 98 38 -38 c21 -21 62 -46 97 -59z m1200 0 c120 -45 189
-55 385 -55 155 0 199 3 270 21 117 29 177 57 218 100 l34 37 -3 -96 c-5 -118
-18 -140 -108 -184 -111 -55 -199 -69 -426 -68 -172 1 -211 4 -280 23 -99 27
-157 54 -195 93 -29 29 -30 32 -30 128 l0 98 38 -38 c21 -21 62 -46 97 -59z
m2586 -2056 c104 -36 169 -124 177 -240 8 -120 -38 -212 -131 -265 -216 -123
-464 80 -396 325 41 145 204 229 350 180z m-3181 -1175 l0 -1120 -225 0 -225
0 0 178 0 177 -24 -67 c-49 -138 -114 -221 -213 -270 -116 -57 -298 -51 -433
15 -122 60 -228 191 -284 353 -71 203 -82 501 -26 720 63 247 232 429 442 479
210 49 420 -18 505 -163 l28 -47 3 433 2 432 225 0 225 0 0 -1120z m-2082 463
c115 -28 214 -110 267 -218 59 -121 59 -118 63 -767 l3 -598 -225 0 -226 0 0
478 c0 262 -5 508 -10 546 -12 78 -44 151 -80 178 -14 10 -50 23 -80 30 -101
20 -204 -29 -281 -135 l-29 -40 0 -529 0 -528 -225 0 -225 0 0 785 0 785 199
0 198 0 6 -97 c4 -54 10 -147 13 -206 l7 -109 33 99 c17 55 46 123 64 151 102
167 300 232 528 175z m-5138 -13 c103 -29 160 -63 225 -131 76 -80 134 -212
147 -334 l3 -30 -57 0 c-32 1 -129 2 -216 3 l-159 2 -16 60 c-29 104 -89 150
-196 150 -57 0 -127 -34 -146 -71 -8 -15 -15 -48 -15 -73 0 -37 6 -52 32 -81
49 -57 114 -85 348 -151 238 -67 367 -150 427 -273 23 -47 28 -72 31 -157 8
-212 -71 -342 -263 -434 -118 -57 -211 -74 -390 -75 -176 0 -270 18 -385 72
-163 78 -280 258 -280 430 l0 43 214 0 215 0 16 -57 c35 -119 100 -167 230
-167 143 0 213 52 202 151 -8 78 -42 100 -252 162 -336 100 -483 190 -553 338
-25 54 -27 67 -27 188 0 122 2 134 29 192 47 101 156 190 290 233 141 45 406
50 546 10z m1692 19 c204 -42 356 -213 425 -479 31 -117 42 -365 24 -504 -43
-320 -213 -547 -458 -611 -71 -19 -211 -19 -279 -1 -117 31 -206 103 -259 210
-15 28 -23 42 -19 31 4 -11 9 -201 12 -423 l5 -402 -224 2 -224 3 -3 1078 -2
1077 219 0 218 0 7 -61 c3 -34 6 -110 7 -168 l0 -106 23 65 c54 156 144 249
276 286 57 16 183 17 252 3z m1663 -13 c218 -61 363 -215 426 -451 18 -65 22
-111 23 -250 l1 -170 -508 -3 -509 -2 7 -53 c28 -203 121 -308 286 -323 131
-13 240 47 270 146 l12 40 215 0 214 0 -7 -47 c-24 -162 -125 -311 -269 -394
-203 -117 -563 -126 -778 -19 -170 85 -274 206 -337 396 -41 121 -55 241 -48
399 7 158 31 258 91 380 95 192 257 312 486 361 89 18 343 12 425 -10z m8291
9 c184 -31 309 -121 381 -271 31 -64 73 -227 62 -238 -3 -3 -101 -2 -219 2
l-214 7 -12 47 c-27 106 -89 158 -189 158 -126 0 -203 -92 -162 -192 30 -71
99 -105 382 -188 160 -47 243 -84 313 -139 99 -78 149 -201 139 -341 -13 -192
-115 -326 -305 -398 -116 -45 -189 -56 -367 -55 -174 0 -260 16 -368 68 -159
75 -261 224 -282 413 l-7 62 219 0 220 0 12 -52 c30 -132 140 -196 292 -169
100 17 141 56 141 134 0 86 -34 110 -242 172 -275 83 -389 137 -478 226 -66
67 -101 137 -115 234 -18 134 17 272 93 358 65 74 222 146 363 167 89 13 251
11 343 -5z m1621 0 c189 -36 335 -147 417 -317 66 -138 99 -338 82 -501 l-8
-67 -504 0 -504 0 0 -27 c0 -46 28 -151 54 -202 52 -101 129 -144 261 -145 75
-1 98 3 137 22 51 25 84 63 104 121 l12 36 217 3 216 2 -6 -37 c-31 -191 -142
-342 -311 -423 -165 -79 -417 -98 -619 -45 -175 46 -336 176 -414 335 -72 149
-85 215 -85 445 0 175 3 210 22 280 75 276 267 461 537 518 92 20 292 21 392
2z m-5358 -67 c20 -101 91 -475 151 -798 33 -179 63 -336 66 -350 6 -24 7 -24
15 -5 4 11 20 97 34 190 22 144 175 944 191 998 5 16 27 17 285 17 153 0 279
-2 279 -4 0 -1 34 -167 75 -367 41 -200 91 -463 110 -584 43 -268 44 -274 55
-255 4 8 15 58 25 110 9 52 59 319 111 594 52 274 94 500 94 502 0 2 106 4
236 4 185 0 235 -3 231 -12 -2 -7 -103 -361 -223 -785 l-219 -773 -267 0
c-245 0 -267 1 -272 18 -32 106 -164 731 -191 903 -32 208 -39 239 -49 228 -3
-2 -21 -106 -41 -229 -20 -124 -71 -380 -114 -570 l-77 -345 -270 -3 -269 -2
-219 772 c-120 425 -221 779 -223 786 -4 9 47 12 230 12 l236 0 10 -52z m2621
-733 l0 -785 -220 0 -220 0 0 785 0 785 220 0 220 0 0 -785z"/>
<path d="M9966 8155 c-116 -44 -175 -145 -197 -333 -9 -70 -9 -120 0 -193 15
-134 42 -202 105 -265 62 -63 108 -78 221 -72 92 5 165 36 209 88 l26 32 0
294 c0 270 -2 298 -19 332 -25 48 -62 86 -109 108 -50 24 -184 29 -236 9z"/>
<path d="M4855 8156 c-62 -19 -100 -42 -129 -76 l-26 -32 0 -299 c0 -330 1
-339 67 -401 92 -87 278 -88 374 -1 82 74 119 193 119 383 0 247 -66 384 -204
425 -60 18 -146 18 -201 1z"/>
<path d="M6561 8179 c-86 -26 -144 -90 -181 -199 -21 -62 -40 -215 -21 -175
14 31 55 65 92 75 19 6 137 10 262 10 l229 0 -7 52 c-16 111 -51 173 -122 215
-39 23 -60 27 -132 30 -47 1 -101 -2 -120 -8z"/>
<path d="M16506 8174 c-116 -42 -178 -152 -200 -354 l-4 -45 19 38 c36 70 67
77 342 77 l237 0 -4 23 c-3 12 -8 40 -11 62 -16 100 -76 176 -159 200 -62 19
-169 18 -220 -1z"/>
</g>
</svg>
